<svg data-v-0dd9719b="" version="1.0" xmlns="http://www.w3.org/2000/svg" xmlns:xlink="http://www.w3.org/1999/xlink" width="100%" height="100%" viewBox="0 0 340.000000 250.000000" preserveAspectRatio="xMidYMid meet" color-interpolation-filters="sRGB" style="margin: auto;"> <rect data-v-0dd9719b="" x="0" y="0" width="100%" height="100%" fill="#fff" fill-opacity="1" class="background"></rect> <rect data-v-0dd9719b="" x="0" y="0" width="100%" height="100%" fill="url(#watermark)" fill-opacity="1" class="watermarklayer"></rect> <g data-v-0dd9719b="" fill="#333" class="icon-text-wrapper icon-svg-group iconsvg" transform="translate(48.454994201660156,85.25226593017578)"><g class="iconsvg-imagesvg" transform="translate(0,0)"><g><rect fill="#333" fill-opacity="0" stroke-width="2" x="0" y="0" width="60" height="79.49546875828078" class="image-rect"></rect> <svg x="0" y="0" width="60" height="79.49546875828078" filtersec="colorsb3189734802" class="image-svg-svg primary" style="overflow: visible;"><svg xmlns="http://www.w3.org/2000/svg" viewBox="-0.017558300867676735 -0.010774915106594563 78.8575439453125 104.48031616210938"><title>资源 100</title><path d="M2.89 0a83.45 83.45 0 0 1 9.27 2.35c4.1 1.53 8.43 2 12.61 3.09C34.14 8 43.56 10.25 53 12.6c2.55.64 5.13 1.17 7.7 1.76 2.17.5 2.58 1.59 1.52 3.5q-6.3 11.27-12.47 22.57c-3.18 5.83-6.28 11.7-9.45 17.57-1 1.8-2.42 1.79-3.48 0-5.06-8.28-9.91-16.7-15.22-24.83S11.44 16.85 6.22 8.79A65.87 65.87 0 0 0 2 2.39 1.55 1.55 0 0 1 1.66.51 1.34 1.34 0 0 1 2.89 0z" fill="#23b5e8"></path><path d="M78.81 46.9c0 7.84-.09 15.69 0 23.53 0 2.86-1.21 4.47-3.51 5.94-5.94 3.8-11.7 7.87-17.59 11.74-6.46 4.23-13 8.34-19.48 12.55-1.42.92-2.68 2.08-4.06 3.08-.59.43-1.29 1.12-2 .45a1.76 1.76 0 0 1 0-2.36c2.37-3.75 4.36-7.69 6.39-11.62 2.38-4.6 4.92-9.13 7.51-13.61 4.24-7.36 8.25-14.85 12.31-22.3 3.56-6.56 7.19-13.11 10.55-19.79 2.32-4.64 5-9.11 7.49-13.64.33-.61.76-1.26 1.58-1s.83 1 .84 1.71v11.51z" fill="#0b4fbf"></path><path d="M0 30.13c0-.62-.2-1.7.75-2.05 1.1-.4 1.79.61 2.2 1.37 3.56 6.59 8 12.66 11.64 19.2 3 5.31 6.57 10.3 9.84 15.47q3 4.74 5.84 9.58a3.79 3.79 0 0 1-.2 3.89q-6.75 12.3-13.45 24.64c-.48.89-.9 2-2.15 1.83s-1-1.42-1.24-2.3c-2.34-8.63-2.84-17.63-4.86-26.28-2.5-10.72-3.47-21.68-6-32.37C1.35 38.91.8 34.6 0 30.13z" fill="#fa3d39"></path></svg></svg> <!----></g></g> <g transform="translate(67,11.033670425415039)"><g data-gra="path-name" fill-rule="" class="tp-name iconsvg-namesvg" transform="translate(0,0)"><g transform="scale(1)"><g><path d="M7.2-35.87L38.43-35.87 38.43-32.04Q38.43-29.11 35.5-29.11L35.5-29.11 10.13-29.11Q7.2-29.11 7.2-32.04L7.2-32.04 7.2-35.87ZM43.06-23.31L43.06-19.44Q43.06-16.52 40.14-16.52L40.14-16.52 22.59-16.52Q19.26-10.93 15.16-6.21L15.16-6.21Q14.63-5.58 15.48-5.58L15.48-5.58 29.92-6.34 28.35-8.69 28.04-9.13Q26.41-11.56 29.43-13.14L29.43-13.14Q32.49-14.71 34.2-12.38L34.2-12.38Q39.02-5.98 41.22-1.8L41.22-1.8Q42.66 0.77 39.42 2.7L39.42 2.7Q36.23 4.68 34.92 2.07L34.92 2.07Q35.05 2.21 33.8 0L33.8 0Q11.65 1.57 9.36 1.93L9.36 1.93 8.78 2.07Q5.89 2.7 4.59-0.94L4.59-0.94Q3.33-4.59 5.13-5.49L5.13-5.49Q5.94-6.12 7.02-7.29 8.1-8.46 9.86-10.98L9.86-10.98 13.23-16.52 4.86-16.52Q1.93-16.52 1.93-19.44L1.93-19.44 1.93-23.31 43.06-23.31ZM62.95-15.12L66.73-15.12Q69.66-15.12 70.02-18L70.02-18Q70.2-18.04 71.06-20.52L71.06-20.52 64.58-20.52 65.43-18.99Q66.64-16.34 63.9-15.43L63.9-15.43 62.95-15.12ZM87.57-35.19L87.57-32.04Q87.57-29.11 84.64-29.11L84.64-29.11 71.19-29.11 71.19-26.5 86.31-26.5 86.31-2.11Q86.31 0.14 85.68 1.3L85.68 1.3Q85.09 2.48 83.25 3.28L83.25 3.28Q81.45 4.09 78.16 4.23L78.16 4.23Q75.24 4.09 74.2 1.4L74.2 1.4 73.13-1.35Q74.38-1.26 76.23-1.21L76.23-1.21Q78.12-1.21 78.62-1.21L78.62-1.21Q79.11-1.26 79.34-1.44L79.34-1.44Q79.56-1.67 79.56-2.16L79.56-2.16 79.56-20.52 72.13-20.52 73.8-20.07Q76.63-19.3 75.11-16.79L75.11-16.79Q75.06-16.56 74.07-15.12L74.07-15.12 77.13-15.12 77.13-13.05Q77.13-10.13 74.2-10.13L74.2-10.13 70.42-10.13 70.42-8.05 78.21-8.05 78.21-5.8Q78.21-2.88 75.28-2.88L75.28-2.88 70.42-2.88 70.42-0.18Q70.42 2.75 67.32 2.75L67.32 2.75Q64.26 2.75 64.26-0.18L64.26-0.18 64.26-2.88 59.63-2.88Q56.7-2.88 56.7-5.8L56.7-5.8 56.7-8.05 64.26-8.05 64.26-10.13 60.57-10.13Q57.64-10.13 57.64-13.05L57.64-13.05 57.64-15.12 61.02-15.12 60.34-16.83Q59.04-19.48 61.83-20.25L61.83-20.25 62.69-20.52 55.26-20.52 55.26 1.21Q55.26 4.14 51.98 4.14 48.69 4.14 48.69 1.21L48.69 1.21 48.69-26.5 64.03-26.5 64.03-29.11 50.35-29.11Q47.43-29.11 47.43-32.04L47.43-32.04 47.43-35.19 64.03-35.19 64.03-38.02 71.19-38.02 71.19-35.19 87.57-35.19ZM91.58-16.88L91.58-21.11 133.51-21.11 133.51-16.88Q133.51-13.95 130.59-13.95L130.59-13.95 94.5-13.95Q91.58-13.95 91.58-16.88L91.58-16.88ZM151.51-29.83Q151.51-26.91 148.28-26.91 145.03-26.91 145.03-29.83L145.03-29.83 139.91-29.83Q136.98-29.83 136.98-32.76L136.98-32.76 136.98-35.46 145.03-35.46 145.03-38.48 151.51-38.48 151.51-35.46 156.47-35.46 156.47-32.76Q156.47-29.83 153.54-29.83L153.54-29.83 151.51-29.83ZM161.59-15.48L161.59-20.25 150.12-20.25 148.95-16.29Q148.72-15.48 149.58-15.48L149.58-15.48 161.59-15.48ZM172.39-20.25L168.16-20.25 168.16-15.48 178.02-15.48 178.02-12.42Q178.02-9.49 175.09-9.49L175.09-9.49 168.16-9.49 168.16-2.61Q168.16-0.14 167.53 1.17L167.53 1.17Q166.91 2.52 165.24 3.19L165.24 3.19Q162.76 4.23 159.03 4L159.03 4Q156.15 4.23 155.16 1.48L155.16 1.48 153.85-1.98Q156.33-1.84 160.43-1.84L160.43-1.84Q161.59-1.84 161.59-2.75L161.59-2.75 161.59-8.87Q157.77-5.08 152.1-1.75 146.43 1.57 143.55 2.43L143.55 2.43Q140.81 3.42 138.69 0.58L138.69 0.58Q136.62-2.25 139.46-3.01L139.46-3.01Q145.49-4.27 152.95-9.49L152.95-9.49 143.28-9.49Q140.35-9.49 141.16-12.29L141.16-12.29Q142.02-14.76 143.1-20.25L143.1-20.25 141.75-20.25Q138.82-20.25 138.82-23.18L138.82-23.18 138.82-26.1 175.32-26.1 175.32-23.18Q175.32-20.25 172.39-20.25L172.39-20.25ZM169.56-38.48L169.56-35.5 178.02-35.5 178.02-32.8Q178.02-29.88 175.09-29.88L175.09-29.88 169.56-29.83Q169.56-26.91 166.32-26.91 163.08-26.91 163.08-29.88L163.08-29.88 161.06-29.88Q158.13-29.88 158.13-32.8L158.13-32.8 158.13-35.5 163.08-35.5 163.08-38.48 169.56-38.48Z" transform="translate(-1.9300000667572021, 38.47999954223633)"></path></g> <!----> <!----> <!----> <!----> <!----> <!----> <!----></g></g> <g data-gra="path-slogan" fill-rule="" class="tp-slogan iconsvg-slogansvg" fill="#333" transform="translate(47.71000671386719,48.709999084472656)"><!----> <!----> <g transform="scale(1, 1)"><g transform="scale(1)"><path d="M7.83-8.58L4.59-3.47L4.59 0L3.42 0L3.42-3.47L0.19-8.58L1.55-8.58L3.98-4.45L6.47-8.58L7.83-8.58ZM14.53-3.19L14.53-8.58L15.70-8.58L15.70-3.05Q15.56 0.05 12.19 0.14L12.19 0.14Q9.05 0.05 8.91-2.86L8.91-2.86L8.91-8.58L10.08-8.58L10.08-3.19Q10.13-0.84 12.23-0.80L12.23-0.80Q14.53-0.84 14.53-3.19L14.53-3.19ZM18.89-8.58L23.20-1.64L23.20-8.58L24.33-8.58L24.33 0L23.02 0L18.66-6.94L18.61-6.94L18.61 0L17.48 0L17.48-8.58L18.89-8.58ZM27.52-8.58L31.83-1.64L31.83-8.58L32.95-8.58L32.95 0L31.64 0L27.28-6.94L27.23-6.94L27.23 0L26.11 0L26.11-8.58L27.52-8.58ZM40.41 0L39.56-2.48L36.09-2.48L35.20 0L34.03 0L37.27-8.58L38.58-8.58L41.67 0L40.41 0ZM37.83-7.31L36.47-3.52L39.14-3.52L37.88-7.31L37.83-7.31ZM44.11-8.58L48.42-1.64L48.42-8.58L49.55-8.58L49.55 0L48.23 0L43.88-6.94L43.83-6.94L43.83 0L42.70 0L42.70-8.58L44.11-8.58ZM61.59-8.58L58.36-3.47L58.36 0L57.19 0L57.19-3.47L53.95-8.58L55.31-8.58L57.75-4.45L60.23-8.58L61.59-8.58ZM62.81-8.58L63.98-8.58L63.98 0L62.81 0L62.81-8.58ZM72.89-8.58L69.66-3.47L69.66 0L68.48 0L68.48-3.47L65.25-8.58L66.61-8.58L69.05-4.45L71.53-8.58L72.89-8.58ZM79.59 0L78.75-2.48L75.28-2.48L74.39 0L73.22 0L76.45-8.58L77.77-8.58L80.86 0L79.59 0ZM77.02-7.31L75.66-3.52L78.33-3.52L77.06-7.31L77.02-7.31Z" transform="translate(-0.1875, 8.578125)"></path></g></g></g></g></g><defs v-gra="od"></defs></svg>